#!OML:ASF I:\Actors\actors\Patient Classification 1\Patient 1\Session 1\Subject1.ASF
:FULLY-SPECIFIED
:DEGREES
797
root 0.491324 17.5604 8.15306 8.16282 -3.8585 -4.8563
lowerback 0.575191 -0.452292 -3.68776
upperback -9.04512 -0.844419 0.0114661
thorax -9.85205 -0.116022 2.14972
lowerneck -14.1233 -4.3855 -0.436978
upperneck 22.5174 -6.40812 1.29998
head 9.49372 -2.89713 -0.268917
rclavicle -5.96354e-016 -5.56597e-015
rhumerus -36.3545 9.25701 -91.4988
rradius 34.0519
rwrist 4.24009
rhand -5.56143 -23.9545
rfingers 7.12502
rthumb 20.2539 -52.9185
lclavicle -5.96354e-016 -5.56597e-015
lhumerus -46.5208 15.6641 75.6265
lradius 22.6425
lwrist -11.167
lhand -31.458 -25.6255
lfingers 7.12502
lthumb -4.72539 4.30185
rfemur -5.01151 24.2729 17.1981
rtibia 4.54322
rfoot -10.5567 -21.6108
rtoes -2.58226
lfemur 5.88769 -38.6558 -22.0733
ltibia -3.41237
lfoot -17.289 50.0105
ltoes 13.7291
798
root 0.485606 17.5588 8.1603 8.1931 -3.87229 -4.76368
lowerback 0.518033 -0.343638 -3.56747
upperback -9.07364 -0.692994 -0.0443716
thorax -9.86027 -0.0538155 2.00896
lowerneck -14.1885 -4.42822 -0.570514
upperneck 22.6364 -6.44421 1.31921
head 9.5536 -2.92023 -0.248352
rclavicle 1.25234e-014 8.74653e-015
rhumerus -37.0789 9.0506 -92.1896
rradius 32.5328
rwrist 6.0758
rhand -6.2933 -24.5228
rfingers 7.12502
rthumb 19.5504 -53.5598
lclavicle 1.25234e-014 8.74653e-015
lhumerus -47.0667 16.2783 74.3129
lradius 21.2368
lwrist -13.4841
lhand -31.5187 -26.5143
lfingers 7.12502
lthumb -4.784 3.41167
rfemur -4.91719 24.4189 17.1077
rtibia 4.36383
rfoot -10.5593 -21.7289
rtoes -2.44288
lfemur 6.13237 -39.2556 -22.3618
ltibia -3.52475
lfoot -17.7526 50.5591
ltoes 14.1939
799
root 0.476604 17.5568 8.16742 8.20568 -3.85807 -4.7835
lowerback 0.489831 -0.262831 -3.38033
upperback -9.11467 -0.573017 -0.0525975
thorax -9.8965 -0.00952746 1.88481
lowerneck -14.1521 -4.44335 -0.827576
upperneck 22.7638 -6.45603 1.51521
head 9.60849 -2.92378 -0.1414
rclavicle 7.15625e-015 -3.97569e-015
rhumerus -37.801 8.70484 -92.7709
rradius 31.1808
rwrist 7.70077
rhand -6.58684 -24.365
rfingers 7.12502
rthumb 19.2681 -53.4305
lclavicle 7.15625e-015 -3.97569e-015
lhumerus -47.5081 16.4114 73.5193
lradius 20.4277
lwrist -15.6252
lhand -31.6147 -24.1854
lfingers 7.12502
lthumb -4.87671 5.73844
rfemur -4.74613 24.7224 17.2049
rtibia 4.15787
rfoot -10.6061 -22.0081
rtoes -2.27609
lfemur 6.36053 -39.6297 -22.4487
ltibia -3.66978
lfoot -17.9783 50.8972
ltoes 14.3592
800
root 0.464215 17.5534 8.17516 8.22728 -3.8396 -4.84528
lowerback 0.411316 -0.178993 -3.18551
upperback -9.15672 -0.444888 -0.0403224
thorax -9.90336 0.038547 1.77712
lowerneck -13.9986 -4.46397 -1.12324
upperneck 22.8406 -6.46778 1.72203
head 9.62539 -2.93177 -0.0204815
rclavicle -9.93923e-016 3.49861e-014
rhumerus -38.4398 8.12634 -93.1298
rradius 29.948
rwrist 9.03658
rhand -6.40683 -24.304
rfingers 7.12502
rthumb 19.4412 -53.3521
lclavicle -9.93923e-016 3.49861e-014
lhumerus -47.9179 16.6874 72.5471
lradius 19.4676
lwrist -17.9434
lhand -31.4594 -23.6181
lfingers 7.12502
lthumb -4.72674 6.30916
rfemur -4.56278 25.0536 17.3698
rtibia 3.92877
rfoot -10.6229 -22.3072
rtoes -2.23771
lfemur 6.50808 -39.8284 -22.4003
ltibia -3.79857
lfoot -18.0915 51.0746
ltoes 14.3965
801
root 0.452736 17.5493 8.18371 8.24648 -3.809 -4.8503
lowerback 0.26946 -0.0785128 -3.01982
upperback -9.14998 -0.294321 -0.0476255
thorax -9.81811 0.0971098 1.66264
lowerneck -13.9872 -4.52515 -1.28066
upperneck 22.9977 -6.53111 1.7605
head 9.68697 -2.96811 0.00890048
rclavicle 3.37934e-015 6.36111e-015
rhumerus -38.8499 7.41781 -93.2591
rradius 28.5945
rwrist 10.6077
rhand -6.28001 -24.1729
rfingers 7.12502
rthumb 19.5632 -53.2087
lclavicle 3.37934e-015 6.36111e-015
lhumerus -48.1426 17.0567 71.5238
lradius 18.3492
lwrist -20.2584
lhand -31.2622 -24.3246
lfingers 7.12502
lthumb -4.53636 5.60681
rfemur -4.36223 25.2365 17.4509
rtibia 3.66509
rfoot -10.6689 -22.4543
rtoes -1.81102
lfemur 6.60694 -39.9731 -22.4116
ltibia -3.86309
lfoot -18.2074 51.187
ltoes 14.4636
